<svg xmlns="http://www.w3.org/2000/svg" xmlns:xlink="http://www.w3.org/1999/xlink" width="45" height="45" viewBox="0 0 45 45">
  <defs>
    <clipPath id="clip-path">
      <circle id="Ellipse_1670" data-name="Ellipse 1670" cx="22.5" cy="22.5" r="22.5" transform="translate(-79.022 162.271)" fill="none"/>
    </clipPath>
    <linearGradient id="linear-gradient" x1="0.501" y1="1.117" x2="0.495" y2="0.023" gradientUnits="objectBoundingBox">
      <stop offset="0" stop-color="#addcff"/>
      <stop offset="0.503" stop-color="#eaf6ff"/>
      <stop offset="1" stop-color="#eaf6ff"/>
    </linearGradient>
  </defs>
  <g id="Group_1489" data-name="Group 1489" transform="translate(79.022 -162.271)">
    <g id="Group_1486" data-name="Group 1486">
      <g id="Group_1485" data-name="Group 1485">
        <circle id="Ellipse_1669" data-name="Ellipse 1669" cx="22.5" cy="22.5" r="22.5" transform="translate(-79.022 162.271)" fill="#5467e7"/>
      </g>
    </g>
    <g id="Group_1488" data-name="Group 1488">
      <g id="Group_1487" data-name="Group 1487" clip-path="url(#clip-path)">
        <path id="Path_1094" data-name="Path 1094" d="M-42.115,198.353c-1.147-4.6-3.087-5.151-3.087-5.151l-7.524-2.138c-.895-.36-1.792-.721-1.832-.733a9.032,9.032,0,0,1-.227-2.589c0-.151,0-.314,0-.484a11.215,11.215,0,0,0,2.113-3.806c1.779.21,2.758-2.11,2.179-2.879a1.242,1.242,0,0,0-.785-.489,1.007,1.007,0,0,1,.15-.013,32.049,32.049,0,0,0,.842-5.942,15.706,15.706,0,0,0-1.856-2.245v0l-.036-.032a4.08,4.08,0,0,0-.116-1.642,3.729,3.729,0,0,0-.4-.868,2.036,2.036,0,0,1-.541,1.134,2.933,2.933,0,0,0-.1-1.822,4.051,4.051,0,0,1-3.091,1.435c.305-.194.4-.795.394-1.154a6.958,6.958,0,0,1-2.512.877h0a6.264,6.264,0,0,0-1.634-.062,5.95,5.95,0,0,0-3.73,2.016,5.123,5.123,0,0,1-1.089,1.085s.113.116.605-.1a6.7,6.7,0,0,0-1.27,2.374c-.06.262.416,4.944.416,4.944l.042,0a1.239,1.239,0,0,0-.711.38c-.69.723.1,3.306,2.045,3.1a10.263,10.263,0,0,0,2.312,3.929c0,.051,0,.105,0,.154a9.3,9.3,0,0,1-.227,2.7c-.037.012-.733.277-1.47.559l-.016-.011h0l-8.087,2.323v.006c-.3.124-1.969.976-3.008,5.146-1.63,4.889-1.878,6.093-1.878,6.093a1.087,1.087,0,0,0,.123.221l4.52,3.964,5.133.484,13.028-.725a6.614,6.614,0,0,0,2.253,1.125c.517,0,2.786,2.487,3.167,2.194l-.16-7.042h8.075C-40.273,204.057-40.83,202.208-42.115,198.353Zm-9.967-18.274v.057h0Z" transform="translate(1.641 1.657)" fill="url(#linear-gradient)"/>
      </g>
    </g>
  </g>
</svg>
